<svg id="emoji" viewBox="10 8 52 52" xmlns="http://www.w3.org/2000/svg" style="background: #2b2b2b;">
  <g id="line">
    <path fill="none" stroke-linecap="round" stroke-linejoin="round" stroke-miterlimit="2" stroke-width="2"
      d="M34,16.0109V13.5c0-1.3807,1.1193-2.5,2.5-2.5l0,0c1.3807,0,2.5,1.1193,2.5,2.5V16" stroke="white" />
    <path fill="none" stroke-linecap="round" stroke-linejoin="round" stroke-miterlimit="2" stroke-width="2"
      d="M47.4505,56h-22.901C19.8473,56,16,52.1527,16,47.4505v-22.901C16,19.8473,19.8473,16,24.5495,16h22.901 C52.1527,16,56,19.8473,56,24.5495v22.901C56,52.1527,52.1527,56,47.4505,56z"
      stroke="white" />
    <ellipse cx="44.8346" cy="29.0022" rx="2.8338" ry="2.8338" fill="none" stroke-linecap="round"
      stroke-linejoin="round" stroke-miterlimit="2" stroke-width="2" stroke="white" />
    <ellipse cx="27.3342" cy="29.0017" rx="2.8338" ry="2.8338" fill="none" stroke-linecap="round"
      stroke-linejoin="round" stroke-miterlimit="2" stroke-width="2" stroke="white" />
    <path fill="none" stroke-miterlimit="2" stroke-width="2"
      d="M44.5,47.5h-17c-2.2,0-4-1.8-4-4l0,0 c0-2.2,1.8-4,4-4h17c2.2,0,4,1.8,4,4l0,0C48.5,45.7,46.7,47.5,44.5,47.5z"
      stroke="white" />
    <path fill="none" stroke-linecap="round" stroke-linejoin="round" stroke-miterlimit="2" stroke-width="2"
      d="M13.5,41L13.5,41c-1.3807,0-2.5-1.1193-2.5-2.5v-8c0-1.3807,1.1193-2.5,2.5-2.5l0,0c1.3807,0,2.5,1.1193,2.5,2.5v8 C16,39.8807,14.8807,41,13.5,41z"
      stroke="white" />
    <path fill="none" stroke-linecap="round" stroke-linejoin="round" stroke-miterlimit="2" stroke-width="2"
      d="M58.5,41L58.5,41c1.3807,0,2.5-1.1193,2.5-2.5v-8c0-1.3807-1.1193-2.5-2.5-2.5l0,0c-1.3807,0-2.5,1.1193-2.5,2.5v8 C56,39.8807,57.1193,41,58.5,41z"
      stroke="white" />
    <line x2="28" y1="40" y2="47" fill="none" stroke-linecap="round" stroke-linejoin="round" stroke-miterlimit="2"
      stroke-width="2" x1="28" stroke="white" />
    <line x1="33" x2="33" y1="40" y2="47" fill="none" stroke-linecap="round" stroke-linejoin="round"
      stroke-miterlimit="2" stroke-width="2" stroke="white" />
    <line x1="38" x2="38" y1="40" y2="47" fill="none" stroke-linecap="round" stroke-linejoin="round"
      stroke-miterlimit="2" stroke-width="2" stroke="white" />
    <line x2="43" y1="40" y2="47" fill="none" stroke-linecap="round" stroke-linejoin="round" stroke-miterlimit="2"
      stroke-width="2" x1="43" stroke="white" />
  </g>
</svg>